<svg xmlns="http://www.w3.org/2000/svg" version="1.1" xmlns:xlink="http://www.w3.org/1999/xlink" xmlns:svgjs="http://svgjs.dev/svgjs" width="1000" height="623" viewBox="0 0 1000 623"><g transform="matrix(1,0,0,1,-0.6060606060606233,0.2522267206477409)"><svg viewBox="0 0 396 247" data-background-color="#ffffff" preserveAspectRatio="xMidYMid meet" height="623" width="1000" xmlns="http://www.w3.org/2000/svg" xmlns:xlink="http://www.w3.org/1999/xlink"><g id="tight-bounds" transform="matrix(1,0,0,1,0.2400000000000091,-0.09999999999999432)"><svg viewBox="0 0 395.52 247.2" height="247.2" width="395.52"><g><svg></svg></g><g><svg viewBox="0 0 395.52 247.2" height="247.2" width="395.52"><g><path xmlns="http://www.w3.org/2000/svg" d="M55.039 247.2l34.331-59.463 0 13.136-22.747 39.399h262.274l-22.747-39.399v-13.136l34.331 59.463zM197.76 0l26.403 45.732-7.583 0-18.82-32.596-18.82 32.596-7.583 0z" fill="#8abe53" fill-rule="nonzero" stroke="none" stroke-width="1" stroke-linecap="butt" stroke-linejoin="miter" stroke-miterlimit="10" stroke-dasharray="" stroke-dashoffset="0" font-family="none" font-weight="none" font-size="none" text-anchor="none" style="mix-blend-mode: normal" data-fill-palette-color="tertiary"></path></g><g transform="matrix(1,0,0,1,111.61781659388646,67.97999999999999)"><svg viewBox="0 0 172.28436681222706 111.24" height="111.24" width="172.28436681222706"><g><svg viewBox="0 0 172.28436681222706 111.24" height="111.24" width="172.28436681222706"><g><svg viewBox="0 0 172.28436681222706 111.24" height="111.24" width="172.28436681222706"><g><svg viewBox="0 0 172.28436681222706 111.24" height="111.24" width="172.28436681222706"><g id="textblocktransform"><svg viewBox="0 0 172.28436681222706 111.24" height="111.24" width="172.28436681222706" id="textblock"><g><svg viewBox="0 0 172.28436681222706 111.24" height="111.24" width="172.28436681222706"><g transform="matrix(1,0,0,1,0,0)"><svg width="172.28436681222706" viewBox="3.6500000953674316 -34 53.19999694824219 34.349998474121094" height="111.24" data-palette-color="#8abe53"><path d="M23.1-8.7L23.1-8.7Q23.1-4.3 20.15-1.98 17.2 0.35 12.6 0.35L12.6 0.35Q7.4 0.35 3.75-1.85L3.75-1.85 3.75-5.3Q5.25-4.15 7.63-3.4 10-2.65 12.45-2.65L12.45-2.65Q16-2.65 17.98-4.2 19.95-5.75 19.95-8.65L19.95-8.65Q19.95-10.85 18.45-12.23 16.95-13.6 14.1-14.85L14.1-14.85Q13.7-15.05 12.35-15.63 11-16.2 10.45-16.45 9.9-16.7 8.75-17.3 7.6-17.9 7.08-18.35 6.55-18.8 5.75-19.55 4.95-20.3 4.6-21.05 4.25-21.8 3.95-22.83 3.65-23.85 3.65-25L3.65-25Q3.65-29.25 6.7-31.63 9.75-34 14.15-34L14.15-34Q18.35-34 21.15-32.5L21.15-32.5 21.15-29.05Q19.95-29.85 18-30.4 16.05-30.95 14.2-30.95L14.2-30.95Q10.85-30.95 8.85-29.38 6.85-27.8 6.85-25.2L6.85-25.2Q6.85-23.85 7.38-22.8 7.9-21.75 9.15-20.88 10.4-20 11.33-19.53 12.25-19.05 14.15-18.25L14.15-18.25Q15.9-17.5 16.8-17.07 17.7-16.65 19.1-15.75 20.5-14.85 21.23-13.98 21.95-13.1 22.53-11.73 23.1-10.35 23.1-8.7ZM40.2 0L40.2 0 30.35 0 30.35-33.7 39.95-33.7Q47.35-33.7 52.1-29.1 56.85-24.5 56.85-17.05L56.85-17.05Q56.85-12.5 55.1-8.72 53.35-4.95 49.47-2.48 45.6 0 40.2 0ZM39.95-30.85L39.95-30.85 33.45-30.85 33.45-2.85 40.2-2.85Q43.65-2.85 46.3-4.05 48.95-5.25 50.5-7.3 52.05-9.35 52.82-11.8 53.6-14.25 53.6-17.05L53.6-17.05Q53.6-22.8 49.77-26.83 45.95-30.85 39.95-30.85Z" opacity="1" transform="matrix(1,0,0,1,0,0)" fill="#8abe53" class="wordmark-text-0" data-fill-palette-color="primary" id="text-0"></path></svg></g></svg></g></svg></g></svg></g></svg></g></svg></g></svg></g></svg></g><defs></defs></svg><rect width="395.52" height="247.2" fill="none" stroke="none" visibility="hidden"></rect></g></svg></g></svg>